<mxfile host="www.draw.io" modified="2020-02-21T09:31:43.114Z" agent="Mozilla/5.0 (Windows NT 6.1; Win64; x64) AppleWebKit/537.36 (KHTML, like Gecko) Chrome/78.0.3904.97 Safari/537.36" etag="-ZnrKHtk2HIg9FMmQ-4E" version="12.7.2" type="github">
  <diagram id="6uXkGhZr5pgh-2xZ41Ec" name="第 1 页">
    <mxGraphModel dx="1851" dy="535" grid="1" gridSize="10" guides="1" tooltips="1" connect="1" arrows="1" fold="1" page="1" pageScale="1" pageWidth="827" pageHeight="1169" math="0" shadow="0">
      <root>
        <mxCell id="0" />
        <mxCell id="1" parent="0" />
        <mxCell id="FpkynAk1dJjQP5pkURWO-10" style="edgeStyle=orthogonalEdgeStyle;rounded=0;orthogonalLoop=1;jettySize=auto;html=1;exitX=0.5;exitY=1;exitDx=0;exitDy=0;entryX=0.5;entryY=0;entryDx=0;entryDy=0;" parent="1" source="FpkynAk1dJjQP5pkURWO-2" edge="1">
          <mxGeometry relative="1" as="geometry">
            <mxPoint x="240" y="250" as="targetPoint" />
          </mxGeometry>
        </mxCell>
        <mxCell id="FpkynAk1dJjQP5pkURWO-2" value="存货" style="rounded=1;whiteSpace=wrap;html=1;" parent="1" vertex="1">
          <mxGeometry x="180" y="70" width="120" height="60" as="geometry" />
        </mxCell>
        <mxCell id="FpkynAk1dJjQP5pkURWO-13" style="edgeStyle=orthogonalEdgeStyle;rounded=0;orthogonalLoop=1;jettySize=auto;html=1;exitX=0.25;exitY=1;exitDx=0;exitDy=0;entryX=0.25;entryY=0;entryDx=0;entryDy=0;" parent="1" source="FpkynAk1dJjQP5pkURWO-3" target="FpkynAk1dJjQP5pkURWO-5" edge="1">
          <mxGeometry relative="1" as="geometry" />
        </mxCell>
        <mxCell id="FpkynAk1dJjQP5pkURWO-14" style="edgeStyle=orthogonalEdgeStyle;rounded=0;orthogonalLoop=1;jettySize=auto;html=1;exitX=0.25;exitY=0;exitDx=0;exitDy=0;entryX=0.25;entryY=1;entryDx=0;entryDy=0;" parent="1" source="FpkynAk1dJjQP5pkURWO-3" target="FpkynAk1dJjQP5pkURWO-4" edge="1">
          <mxGeometry relative="1" as="geometry" />
        </mxCell>
        <mxCell id="FpkynAk1dJjQP5pkURWO-3" value="会计平台" style="rounded=1;whiteSpace=wrap;html=1;" parent="1" vertex="1">
          <mxGeometry x="414" y="250" width="120" height="60" as="geometry" />
        </mxCell>
        <mxCell id="FpkynAk1dJjQP5pkURWO-4" value="总账" style="rounded=1;whiteSpace=wrap;html=1;" parent="1" vertex="1">
          <mxGeometry x="414" y="70" width="120" height="60" as="geometry" />
        </mxCell>
        <mxCell id="FpkynAk1dJjQP5pkURWO-8" style="edgeStyle=orthogonalEdgeStyle;rounded=0;orthogonalLoop=1;jettySize=auto;html=1;exitX=0.5;exitY=0;exitDx=0;exitDy=0;entryX=0.5;entryY=1;entryDx=0;entryDy=0;" parent="1" edge="1">
          <mxGeometry relative="1" as="geometry">
            <mxPoint x="499" y="410" as="sourcePoint" />
            <mxPoint x="499" y="310" as="targetPoint" />
          </mxGeometry>
        </mxCell>
        <mxCell id="5UuQ65duL3ghlPnrsfJb-16" style="edgeStyle=orthogonalEdgeStyle;rounded=0;orthogonalLoop=1;jettySize=auto;html=1;exitX=1;exitY=0.5;exitDx=0;exitDy=0;entryX=0.5;entryY=1;entryDx=0;entryDy=0;" edge="1" parent="1" source="FpkynAk1dJjQP5pkURWO-5" target="5UuQ65duL3ghlPnrsfJb-8">
          <mxGeometry relative="1" as="geometry" />
        </mxCell>
        <mxCell id="FpkynAk1dJjQP5pkURWO-5" value="利润中心" style="rounded=1;whiteSpace=wrap;html=1;" parent="1" vertex="1">
          <mxGeometry x="414" y="410" width="120" height="60" as="geometry" />
        </mxCell>
        <mxCell id="FpkynAk1dJjQP5pkURWO-6" value="" style="endArrow=classic;html=1;exitX=0.5;exitY=1;exitDx=0;exitDy=0;entryX=0.5;entryY=0;entryDx=0;entryDy=0;" parent="1" edge="1">
          <mxGeometry width="50" height="50" relative="1" as="geometry">
            <mxPoint x="502" y="130" as="sourcePoint" />
            <mxPoint x="502" y="250" as="targetPoint" />
            <Array as="points">
              <mxPoint x="502" y="170" />
            </Array>
          </mxGeometry>
        </mxCell>
        <mxCell id="FpkynAk1dJjQP5pkURWO-7" value="" style="endArrow=classic;html=1;entryX=1;entryY=0.25;entryDx=0;entryDy=0;" parent="1" edge="1">
          <mxGeometry width="50" height="50" relative="1" as="geometry">
            <mxPoint x="410" y="266" as="sourcePoint" />
            <mxPoint x="300" y="266" as="targetPoint" />
          </mxGeometry>
        </mxCell>
        <mxCell id="FpkynAk1dJjQP5pkURWO-11" value="" style="endArrow=classic;html=1;exitX=1;exitY=0.75;exitDx=0;exitDy=0;entryX=0;entryY=0.75;entryDx=0;entryDy=0;" parent="1" target="FpkynAk1dJjQP5pkURWO-3" edge="1">
          <mxGeometry width="50" height="50" relative="1" as="geometry">
            <mxPoint x="300" y="295" as="sourcePoint" />
            <mxPoint x="370" y="270" as="targetPoint" />
          </mxGeometry>
        </mxCell>
        <mxCell id="5UuQ65duL3ghlPnrsfJb-1" value="" style="endArrow=classic;html=1;exitX=1;exitY=0.5;exitDx=0;exitDy=0;" edge="1" parent="1" source="FpkynAk1dJjQP5pkURWO-2">
          <mxGeometry width="50" height="50" relative="1" as="geometry">
            <mxPoint x="380" y="300" as="sourcePoint" />
            <mxPoint x="430" y="250" as="targetPoint" />
          </mxGeometry>
        </mxCell>
        <mxCell id="5UuQ65duL3ghlPnrsfJb-4" value="避免总账或者利润中心凭证与成本不一致，故不在会计平台推成本凭证" style="text;html=1;align=center;verticalAlign=middle;resizable=0;points=[];autosize=1;" vertex="1" parent="1">
          <mxGeometry y="490" width="390" height="20" as="geometry" />
        </mxCell>
        <mxCell id="5UuQ65duL3ghlPnrsfJb-5" value="" style="endArrow=classic;html=1;exitX=1;exitY=0.5;exitDx=0;exitDy=0;entryX=0;entryY=0.5;entryDx=0;entryDy=0;" edge="1" parent="1" source="FpkynAk1dJjQP5pkURWO-4" target="5UuQ65duL3ghlPnrsfJb-8">
          <mxGeometry width="50" height="50" relative="1" as="geometry">
            <mxPoint x="380" y="300" as="sourcePoint" />
            <mxPoint x="684.6419141333231" y="237.68346990680084" as="targetPoint" />
          </mxGeometry>
        </mxCell>
        <mxCell id="5UuQ65duL3ghlPnrsfJb-6" value="" style="endArrow=classic;html=1;exitX=0;exitY=0.833;exitDx=0;exitDy=0;exitPerimeter=0;" edge="1" parent="1" source="5UuQ65duL3ghlPnrsfJb-8" target="FpkynAk1dJjQP5pkURWO-3">
          <mxGeometry width="50" height="50" relative="1" as="geometry">
            <mxPoint x="660" y="280" as="sourcePoint" />
            <mxPoint x="430" y="250" as="targetPoint" />
          </mxGeometry>
        </mxCell>
        <mxCell id="5UuQ65duL3ghlPnrsfJb-7" value="会计平台通过凭证主键找到对应&lt;br&gt;原始单据信息，调用成本凭证模板" style="text;html=1;align=center;verticalAlign=middle;resizable=0;points=[];autosize=1;" vertex="1" parent="1">
          <mxGeometry x="530" y="320" width="200" height="30" as="geometry" />
        </mxCell>
        <mxCell id="5UuQ65duL3ghlPnrsfJb-8" value="消息队列" style="shape=cylinder;whiteSpace=wrap;html=1;boundedLbl=1;backgroundOutline=1;" vertex="1" parent="1">
          <mxGeometry x="720" y="180" width="60" height="120" as="geometry" />
        </mxCell>
        <mxCell id="5UuQ65duL3ghlPnrsfJb-9" value="不支持临时凭证合并生成正式凭证" style="text;html=1;align=center;verticalAlign=middle;resizable=0;points=[];autosize=1;" vertex="1" parent="1">
          <mxGeometry y="460" width="200" height="20" as="geometry" />
        </mxCell>
        <mxCell id="5UuQ65duL3ghlPnrsfJb-14" value="手动新增" style="text;html=1;align=center;verticalAlign=middle;resizable=0;points=[];autosize=1;" vertex="1" parent="1">
          <mxGeometry x="500" y="167" width="60" height="20" as="geometry" />
        </mxCell>
        <mxCell id="5UuQ65duL3ghlPnrsfJb-18" value="对账" style="shape=parallelogram;perimeter=parallelogramPerimeter;whiteSpace=wrap;html=1;" vertex="1" parent="1">
          <mxGeometry x="110" y="167" width="70" height="37" as="geometry" />
        </mxCell>
        <mxCell id="5UuQ65duL3ghlPnrsfJb-19" value="凭证日志&lt;br&gt;区分接口推送" style="text;html=1;align=center;verticalAlign=middle;resizable=0;points=[];autosize=1;" vertex="1" parent="1">
          <mxGeometry x="105" y="95" width="90" height="30" as="geometry" />
        </mxCell>
        <mxCell id="5UuQ65duL3ghlPnrsfJb-20" value="凭证日志&lt;br&gt;区分接口推送" style="text;html=1;align=center;verticalAlign=middle;resizable=0;points=[];autosize=1;" vertex="1" parent="1">
          <mxGeometry x="90" y="270" width="90" height="30" as="geometry" />
        </mxCell>
        <mxCell id="5UuQ65duL3ghlPnrsfJb-21" value="" style="endArrow=classic;html=1;exitX=0.49;exitY=1.14;exitDx=0;exitDy=0;exitPerimeter=0;" edge="1" parent="1" source="5UuQ65duL3ghlPnrsfJb-19" target="5UuQ65duL3ghlPnrsfJb-18">
          <mxGeometry width="50" height="50" relative="1" as="geometry">
            <mxPoint x="200" y="130" as="sourcePoint" />
            <mxPoint x="250" y="80" as="targetPoint" />
          </mxGeometry>
        </mxCell>
        <mxCell id="5UuQ65duL3ghlPnrsfJb-22" value="" style="endArrow=classic;html=1;entryX=0.5;entryY=1;entryDx=0;entryDy=0;exitX=0.589;exitY=-0.08;exitDx=0;exitDy=0;exitPerimeter=0;" edge="1" parent="1" source="5UuQ65duL3ghlPnrsfJb-20" target="5UuQ65duL3ghlPnrsfJb-18">
          <mxGeometry width="50" height="50" relative="1" as="geometry">
            <mxPoint x="210" y="254" as="sourcePoint" />
            <mxPoint x="260" y="204" as="targetPoint" />
          </mxGeometry>
        </mxCell>
        <mxCell id="5UuQ65duL3ghlPnrsfJb-23" value="成本管理" style="rounded=1;whiteSpace=wrap;html=1;" vertex="1" parent="1">
          <mxGeometry x="180" y="255" width="120" height="60" as="geometry" />
        </mxCell>
        <mxCell id="5UuQ65duL3ghlPnrsfJb-24" value="疑问：保留接口推送方式的话，如何在生成总账凭证后，不在推送成本？" style="text;html=1;align=center;verticalAlign=middle;resizable=0;points=[];autosize=1;" vertex="1" parent="1">
          <mxGeometry x="-50" y="40" width="400" height="20" as="geometry" />
        </mxCell>
        <mxCell id="5UuQ65duL3ghlPnrsfJb-25" value="发送之前校验存货日志表" style="text;html=1;align=center;verticalAlign=middle;resizable=0;points=[];autosize=1;" vertex="1" parent="1">
          <mxGeometry x="534" y="75" width="150" height="20" as="geometry" />
        </mxCell>
      </root>
    </mxGraphModel>
  </diagram>
</mxfile>
